<svg xmlns="http://www.w3.org/2000/svg" viewBox="0 0 64 64">
  <!-- Background -->
  <circle cx="32" cy="32" r="30" fill="#ffffff" />
  <circle cx="32" cy="32" r="28" fill="#e9f2fe" />
  
  <!-- Modern solar panel with gradient -->
  <defs>
    <linearGradient id="panelGradient" x1="0%" y1="0%" x2="100%" y2="100%">
      <stop offset="0%" stop-color="#0066ff" />
      <stop offset="100%" stop-color="#0d44a0" />
    </linearGradient>
    <linearGradient id="shineGradient" x1="0%" y1="0%" x2="100%" y2="100%">
      <stop offset="0%" stop-color="#ffffff" stop-opacity="0.7" />
      <stop offset="100%" stop-color="#ffffff" stop-opacity="0.1" />
    </linearGradient>
  </defs>
  
  <!-- Main panel -->
  <rect x="14" y="14" width="36" height="36" rx="3" ry="3" fill="url(#panelGradient)" />
  
  <!-- Panel grid - subtler and more modern -->
  <rect x="16" y="16" width="16" height="16" fill="#ffffff" opacity="0.15" />
  <rect x="32" y="16" width="16" height="16" fill="#ffffff" opacity="0.15" />
  <rect x="16" y="32" width="16" height="16" fill="#ffffff" opacity="0.15" />
  <rect x="32" y="32" width="16" height="16" fill="#ffffff" opacity="0.15" />
  
  <!-- Panel dividers - thinner, more elegant -->
  <line x1="32" y1="16" x2="32" y2="48" stroke="#ffffff" stroke-width="0.5" opacity="0.4" />
  <line x1="16" y1="32" x2="48" y2="32" stroke="#ffffff" stroke-width="0.5" opacity="0.4" />
  
  <!-- Panel shine effect -->
  <path d="M14,14 L50,14 L32,32 Z" fill="url(#shineGradient)" />
  
  <!-- Mounting frame hints -->
  <rect x="12" y="50" width="40" height="2" rx="1" ry="1" fill="#0d44a0" />
  
  <!-- Subtle shadow -->
  <rect x="15" y="15" width="36" height="36" rx="3" ry="3" fill="none" stroke="#000000" stroke-width="0.5" opacity="0.1" />
</svg>